<?xml version="1.0" encoding="utf-8"?>
<!-- Generator: Adobe Illustrator 21.0.2, SVG Export Plug-In . SVG Version: 6.00 Build 0)  -->
<svg version="1.1" id="圖層_1" xmlns="http://www.w3.org/2000/svg" xmlns:xlink="http://www.w3.org/1999/xlink" x="0px" y="0px"
	 viewBox="0 0 570 300" style="enable-background:new 0 0 570 300;" xml:space="preserve">
<style type="text/css">
	.st0{fill:#E0253E;}
</style>
<path class="st0" d="M401.5,184.9c1.7,0,22.4-42.5,22.8-43.5c-10.4,0-80.2,0-90.6,0c4.3-8.9,8.3-17.2,12.4-25.6
	c1.2,0,85.3,0,100.2,0c1.5,0,22.2-42.8,22.4-43.4H314.5c-11.3,24.1-22.7,48.3-34,72.5c-11.4,24.2-22.7,48.5-34,72.5H41.7
	c-0.5-4.3-0.3-172.1,0.2-174.2h171c5-10.4,10-20.6,15-31c-4.2-0.6-216.1-0.4-218.1,0.2c0.1,78.7,0.3,157.4,0.4,236.4h221.4
	c-1.8,3.8-18.1,38.4-19.6,42.3c1.4,0,46.2-0.1,48.7,0c1.6,0.1,52.5-105.5,52.9-106.3C314.8,184.9,373.3,184.9,401.5,184.9z
	 M263.6,12.1c-4.8,10.1-9.5,20-14.2,29.9s-9.4,19.9-14.1,29.8c-4.7,9.9-9.4,19.9-14.1,29.8c-4.7,9.9-9.3,19.8-14,29.6
	c-0.2,0-0.3-0.1-0.5-0.1c-2.7-19.2-5.4-38.4-8-57.6h-47.8c-9.1,19.1-18.2,38.2-27.3,57.2c0,0.1-0.1,0.1-0.2,0.1s-0.2,0-0.4-0.1V73
	H79.6v111.4h67.1c8.3-17.8,16.5-35.4,24.7-53c0.1-0.2,0.2-0.3,0.3-0.4c0.1-0.1,0.1-0.1,0.2-0.1c0.1,0,0.2,0,0.4,0.1
	c1.8,17.8,3.6,35.5,5.5,53.5h51.9c22.1-47.1,44.2-94.2,66.2-141.1c11.8-0.6,210.6-0.3,213.1,0.4c-27.6,58-55.2,116-82.7,173.9H334
	c-5,10.3-9.9,20.6-14.9,31h129.2C455.9,234,559.1,14.3,559.4,12.1H263.6z"/>
</svg>
